<svg xmlns="http://www.w3.org/2000/svg" viewBox="0 0 600 760">
  <defs><linearGradient id="bg" x1="0" y1="0" x2="1" y2="1"><stop stop-color="#dbe5f9"/><stop offset="1" stop-color="#a8bce8"/></linearGradient><linearGradient id="dr" x1="0" y1="0" x2="0" y2="1"><stop stop-color="#244b9b"/><stop offset="1" stop-color="#112b65"/></linearGradient></defs>
  <rect width="600" height="760" fill="url(#bg)"/>
  <rect x="70" y="84" width="460" height="592" rx="230" fill="#edf2fc" opacity=".36"/>
  <path d="M232 101h136l23 83 76 397c9 46-23 83-67 83H200c-44 0-77-37-68-83l77-397 23-83Z" fill="url(#dr)"/>
  <path d="M232 101c10 42 31 64 68 64s58-22 68-64" fill="#163a83"/>
  <path d="M300 166v498M209 184h182" stroke="#9cb6ef" stroke-opacity=".55" stroke-width="6"/>
  <path d="M215 305c52 34 111 34 170 0" fill="none" stroke="#92ace4" stroke-width="7"/>
  <circle cx="300" cy="220" r="6" fill="#d9e4ff"/><circle cx="300" cy="260" r="6" fill="#d9e4ff"/><circle cx="300" cy="300" r="6" fill="#d9e4ff"/>
</svg>
