<svg xmlns="http://www.w3.org/2000/svg" viewBox="0 0 600 760">
  <defs><linearGradient id="bg" x1="0" y1="0" x2="0" y2="1"><stop stop-color="#eceff3"/><stop offset="1" stop-color="#cbd3df"/></linearGradient><linearGradient id="hd" x1="0" y1="0" x2="1" y2="1"><stop stop-color="#f7f8f9"/><stop offset="1" stop-color="#adb7c6"/></linearGradient></defs>
  <rect width="600" height="760" fill="url(#bg)"/>
  <path d="M176 180c16-73 67-111 124-111s108 38 124 111l95 92-66 89-39-42 18 332H168l18-332-39 42-66-89 95-92Z" fill="url(#hd)"/>
  <path d="M226 164c22 41 45 60 74 60s52-19 74-60c-6-49-34-82-74-82s-68 33-74 82Z" fill="#c6ced9" stroke="#8f9bab" stroke-width="5"/>
  <path d="M254 225 238 342m108-117 16 117" stroke="#7f8c9d" stroke-width="7" stroke-linecap="round"/>
  <path d="M220 480c46 25 113 25 160 0l15 107H205l15-107Z" fill="#bac3cf"/>
  <path d="M188 616h224" stroke="#8793a3" stroke-width="8"/>
</svg>
