<svg xmlns="http://www.w3.org/2000/svg" viewBox="0 0 600 760">
  <defs><linearGradient id="bg" x1="0" y1="0" x2="0" y2="1"><stop stop-color="#eceff5"/><stop offset="1" stop-color="#d9dfeb"/></linearGradient><linearGradient id="shoe" x1="0" y1="0" x2="1" y2="1"><stop stop-color="#fff"/><stop offset="1" stop-color="#cfd5df"/></linearGradient></defs>
  <rect width="600" height="760" fill="url(#bg)"/>
  <circle cx="110" cy="170" r="95" fill="#224ca6" opacity=".11"/><circle cx="500" cy="590" r="130" fill="#ffffff" opacity=".52"/>
  <path d="M132 397c35-17 69-62 92-125l137 37c19 43 61 78 122 106 29 13 50 39 52 69l-1 40H113c-28 0-50-20-48-45 3-35 25-62 67-82Z" fill="url(#shoe)" stroke="#aeb8c8" stroke-width="5"/>
  <path d="M114 524h420v55c0 18-15 33-33 33H137c-35 0-61-29-61-61v-27h38Z" fill="#f8fafc" stroke="#aeb8c8" stroke-width="5"/>
  <path d="M234 300 183 414m96-99-51 112m96-99-49 110m91-88-47 102" stroke="#1a3577" stroke-width="9" stroke-linecap="round"/>
  <path d="M198 368h196M180 410h235" stroke="#8c99ad" stroke-width="7"/>
  <path d="M169 580c40-22 82-22 124 0m36 0c39-22 80-22 121 0" fill="none" stroke="#d3d9e3" stroke-width="10"/>
</svg>
